<svg width="161" height="38" viewBox="0 0 161 38" fill="none" xmlns="http://www.w3.org/2000/svg">
<path d="M20.7593 20.4796H28.1398C28.4167 20.4796 28.6411 20.7039 28.6411 20.9821V28.1185C28.6411 28.3949 28.4167 28.621 28.1398 28.621H20.7593C20.4818 28.621 20.2574 28.3949 20.2574 28.1185V20.9821C20.2574 20.7039 20.4818 20.4796 20.7593 20.4796Z" fill="#CFE7F7"/>
<path d="M20.2574 8.68304C20.2574 8.40489 20.4818 8.18052 20.7593 8.18052H28.1398C28.4167 8.18052 28.6411 8.40489 28.6411 8.68304V16.3266C28.6411 16.6024 28.4167 16.8285 28.1398 16.8285H20.7593C20.4818 16.8285 20.2574 16.6024 20.2574 16.3266V8.68304Z" fill="#CFE7F7"/>
<path d="M8.72924 20.2264L16.1097 20.4797C16.3855 20.4797 16.6099 20.704 16.6099 20.9822V28.1186C16.6099 28.395 16.3855 28.6211 16.1097 28.6211H8.72924C8.45167 28.6211 8.22731 28.395 8.22731 28.1186V20.7283C8.22731 20.4508 8.45167 20.2264 8.72924 20.2264Z" fill="#CFE7F7"/>
<path fill-rule="evenodd" clip-rule="evenodd" d="M12.3983 17.6504C12.4208 17.6778 12.4443 17.7047 12.4691 17.7311L16.3628 14.5437C16.3418 14.5142 16.3201 14.4858 16.2976 14.4584C16.1653 14.2968 16.0444 14.1419 15.9337 13.9928L12.0138 17.2017C12.138 17.3398 12.266 17.4888 12.3983 17.6504ZM15.7667 13.7609C13.7628 10.9023 15.6576 10.3272 13.7447 7.99044C12.1232 6.00963 9.20074 5.72 7.21727 7.3437C5.23379 8.96741 4.94037 11.8896 6.56189 13.8704C8.47482 16.2072 9.41296 14.4631 11.8195 16.9921L15.7667 13.7609ZM12.6813 17.926C12.8738 18.0783 13.1015 18.2029 13.3411 18.288L16.7365 15.5086C16.7003 15.2568 16.6232 15.009 16.5119 14.7902L12.6813 17.926ZM13.6793 18.3796C14.11 18.4604 14.545 18.4032 14.8601 18.1453L16.2965 16.9694C16.6116 16.7114 16.7534 16.2964 16.7594 15.8581L13.6793 18.3796ZM13.8862 14.0541C13.599 13.9174 13.2733 13.5746 13.0929 13.3242C12.508 12.5126 12.3568 11.4719 12.4103 10.4935L12.4244 10.238L11.9192 10.1554L11.8506 10.4016C11.8005 10.5774 11.6899 10.7884 11.5825 10.9334C11.3815 11.2047 11.1225 11.3678 10.7748 11.3276L10.4821 11.2937L10.4573 11.5875C10.4274 11.9437 10.1994 12.1699 9.89038 12.3177C9.72023 12.399 9.4838 12.4715 9.29398 12.4903L9.04216 12.514L9.02875 13.0202L9.27936 13.0566C10.2519 13.1979 11.2471 13.5493 11.9406 14.2729C12.1532 14.4947 12.4335 14.8769 12.5172 15.1821L12.5887 15.4569L13.1412 15.3125L13.0693 15.0365C13.0585 14.9955 13.0454 14.9538 13.0301 14.9114C12.9011 14.5553 12.6187 14.1616 12.3817 13.9082C11.8311 13.3205 11.1179 12.9406 10.3558 12.7101C10.6574 12.5156 10.8815 12.2461 10.9785 11.9007C11.3208 11.8759 11.6177 11.7246 11.8598 11.4833C11.9383 12.2735 12.1757 13.0436 12.654 13.6916C12.859 13.9693 13.1922 14.313 13.5182 14.5049C13.561 14.5299 13.6036 14.5524 13.6457 14.572L13.9048 14.6913L14.1442 14.1729L13.8862 14.0541Z" fill="#CFE7F7"/>
<path fill-rule="evenodd" clip-rule="evenodd" d="M15.197 18.2382L16.321 17.3181C16.5748 17.6281 16.529 18.0853 16.2186 18.3394C15.9082 18.5935 15.4507 18.5482 15.197 18.2382Z" fill="#CFE7F7"/>
<path d="M33.3857 29.1547V26.5717H35.0986L41.8417 10.6115H46.5455L53.2885 26.5717H55.0014V29.1547H45.1316V26.5717H47.7418L42.3583 13.4664H43.9896L38.4973 26.5717H41.0804V29.1547H33.3857ZM38.9324 23.9072V21.2154H47.5515V23.9072H38.9324ZM67.5588 29.4266C66.2174 29.4266 65.157 29.1366 64.3776 28.5566C63.5981 27.9765 63.0453 27.1337 62.719 26.0279C62.3927 24.9222 62.2296 23.5809 62.2296 22.0039L61.9305 21.9767C61.9305 20.436 62.1118 19.1127 62.4743 18.007C62.855 16.9013 63.4531 16.0494 64.2688 15.4512C65.1026 14.853 66.1812 14.5539 67.5044 14.5539C68.7914 14.5539 69.9242 14.844 70.9031 15.424C71.8819 16.0041 72.6432 16.8469 73.187 17.9526C73.7308 19.0402 74.0027 20.3906 74.0027 22.0039C74.0027 23.5809 73.7308 24.9222 73.187 26.0279C72.6432 27.1337 71.8819 27.9765 70.9031 28.5566C69.9424 29.1366 68.8276 29.4266 67.5588 29.4266ZM65.7099 26.327C66.3624 26.327 66.9062 26.1639 67.3412 25.8376C67.7763 25.5113 68.1025 25.031 68.3201 24.3966C68.5557 23.744 68.6735 22.9465 68.6735 22.0039C68.6735 21.0432 68.5557 20.2456 68.3201 19.6112C68.1025 18.9587 67.7763 18.4692 67.3412 18.143C66.9062 17.8167 66.3624 17.6536 65.7099 17.6536C65.0936 17.6536 64.5588 17.8167 64.1057 18.143C63.6525 18.4692 63.3081 18.9587 63.0725 19.6112C62.855 20.2456 62.7462 21.0432 62.7462 22.0039C62.7462 22.9465 62.864 23.744 63.0997 24.3966C63.3353 25.031 63.6706 25.5113 64.1057 25.8376C64.5588 26.1639 65.0936 26.327 65.7099 26.327ZM56.1935 34.3208V31.7921H58.0424V17.3545H56.2751V14.8258H62.6103V19.9375L62.4471 21.9767L62.9909 25.0219V31.7921H65.3292V34.3208H56.1935ZM87.2075 29.4266C85.8661 29.4266 84.8057 29.1366 84.0263 28.5566C83.2469 27.9765 82.694 27.1337 82.3677 26.0279C82.0415 24.9222 81.8783 23.5809 81.8783 22.0039L81.5792 21.9767C81.5792 20.436 81.7605 19.1127 82.123 18.007C82.5037 16.9013 83.1018 16.0494 83.9175 15.4512C84.7513 14.853 85.8299 14.5539 87.1531 14.5539C88.4401 14.5539 89.573 14.844 90.5518 15.424C91.5306 16.0041 92.2919 16.8469 92.8357 17.9526C93.3795 19.0402 93.6514 20.3906 93.6514 22.0039C93.6514 23.5809 93.3795 24.9222 92.8357 26.0279C92.2919 27.1337 91.5306 27.9765 90.5518 28.5566C89.5911 29.1366 88.4763 29.4266 87.2075 29.4266ZM85.3586 26.327C86.0111 26.327 86.5549 26.1639 86.99 25.8376C87.425 25.5113 87.7513 25.031 87.9688 24.3966C88.2044 23.744 88.3222 22.9465 88.3222 22.0039C88.3222 21.0432 88.2044 20.2456 87.9688 19.6112C87.7513 18.9587 87.425 18.4692 86.99 18.143C86.5549 17.8167 86.0111 17.6536 85.3586 17.6536C84.7423 17.6536 84.2076 17.8167 83.7544 18.143C83.3012 18.4692 82.9568 18.9587 82.7212 19.6112C82.5037 20.2456 82.3949 21.0432 82.3949 22.0039C82.3949 22.9465 82.5127 23.744 82.7484 24.3966C82.984 25.031 83.3194 25.5113 83.7544 25.8376C84.2076 26.1639 84.7423 26.327 85.3586 26.327ZM75.8422 34.3208V31.7921H77.6911V17.3545H75.9238V14.8258H82.259V19.9375L82.0958 21.9767L82.6396 25.0219V31.7921H84.9779V34.3208H75.8422ZM103.974 29.1547L97.2311 13.1945H95.5181V10.6115H105.388V13.1945H102.778L108.134 26.2998H106.503L111.995 13.1945H109.412V10.6115H117.107V13.1945H115.394L108.678 29.1547H103.974ZM117.643 29.1547V26.6261H119.627V17.3545H117.833V14.8258H124.522V26.6261H126.234V29.1547H117.643ZM121.911 13.7926C121.023 13.7926 120.298 13.557 119.736 13.0857C119.192 12.6144 118.921 11.9619 118.921 11.1281C118.921 10.2942 119.192 9.64169 119.736 9.1704C120.298 8.69912 121.023 8.46347 121.911 8.46347C122.8 8.46347 123.516 8.69912 124.059 9.1704C124.621 9.64169 124.902 10.2942 124.902 11.1281C124.902 11.9619 124.621 12.6144 124.059 13.0857C123.516 13.557 122.8 13.7926 121.911 13.7926ZM135.665 29.481C134.179 29.481 132.856 29.2001 131.696 28.6381C130.554 28.0581 129.648 27.2152 128.977 26.1095C128.324 24.9857 127.998 23.6081 127.998 21.9767C127.998 20.3453 128.333 18.9858 129.004 17.8983C129.693 16.7925 130.626 15.9587 131.805 15.3968C132.983 14.8349 134.342 14.5539 135.883 14.5539L136.563 16.9466C135.801 16.9466 135.149 17.1279 134.605 17.4904C134.061 17.8529 133.644 18.3605 133.354 19.013C133.064 19.6475 132.919 20.3997 132.919 21.2698C132.919 22.1398 133.064 22.9102 133.354 23.5809C133.644 24.2516 134.07 24.7772 134.632 25.1579C135.194 25.5385 135.883 25.7289 136.699 25.7289C137.116 25.7289 137.496 25.6745 137.841 25.5657C138.185 25.4388 138.475 25.2666 138.711 25.0491C138.964 24.8316 139.173 24.5778 139.336 24.2878C139.499 23.9978 139.617 23.6896 139.69 23.3634H142.463C142.445 24.2334 142.273 25.0491 141.946 25.8104C141.638 26.5536 141.185 27.1971 140.587 27.7409C140.007 28.2847 139.3 28.7106 138.466 29.0188C137.65 29.3269 136.717 29.481 135.665 29.481ZM139.418 20.8075C138.62 20.8075 137.995 20.6172 137.542 20.2366C137.088 19.8559 136.862 19.3574 136.862 18.7411C136.862 18.1248 137.097 17.6536 137.569 17.3273C138.058 16.9829 138.729 16.8107 139.581 16.8107L139.662 18.4964C139.354 18.152 139.055 17.8711 138.765 17.6536C138.475 17.4179 138.149 17.2457 137.786 17.1369C137.442 17.0101 137.034 16.9466 136.563 16.9466L135.883 14.5539C137.152 14.5539 138.267 14.7261 139.227 15.0705C140.188 15.3968 140.931 15.85 141.457 16.43C141.983 17.0101 142.245 17.6717 142.245 18.4149C142.245 19.158 141.973 19.7471 141.43 20.1822C140.904 20.5991 140.233 20.8075 139.418 20.8075ZM152.099 29.481C150.613 29.481 149.299 29.191 148.157 28.611C147.015 28.0309 146.118 27.188 145.465 26.0823C144.831 24.9585 144.514 23.5899 144.514 21.9767C144.514 20.3816 144.831 19.0312 145.465 17.9254C146.1 16.8016 146.979 15.9497 148.103 15.3696C149.226 14.7896 150.504 14.4996 151.936 14.4996L152.072 17.0554C151.492 17.0554 150.994 17.2095 150.577 17.5176C150.178 17.8076 149.87 18.288 149.652 18.9587C149.453 19.6293 149.353 20.5175 149.353 21.6232C149.353 22.9283 149.67 23.9706 150.305 24.75C150.957 25.5113 151.846 25.892 152.97 25.892C153.586 25.892 154.102 25.7923 154.519 25.5929C154.954 25.3935 155.299 25.1307 155.553 24.8044C155.824 24.46 156.024 24.0794 156.151 23.6624H159.169C159.114 24.4056 158.924 25.1216 158.598 25.8104C158.29 26.4811 157.845 27.0974 157.265 27.6593C156.685 28.2212 155.96 28.6653 155.09 28.9916C154.238 29.3179 153.241 29.481 152.099 29.481ZM146.743 22.2214V19.8559H154.356L159.223 21.0522V22.2214H146.743ZM154.356 19.8559C154.338 19.3665 154.238 18.9133 154.057 18.4964C153.876 18.0614 153.622 17.717 153.296 17.4632C152.97 17.1913 152.562 17.0554 152.072 17.0554L151.936 14.4996C153.513 14.4996 154.837 14.7805 155.906 15.3424C156.994 15.8862 157.818 16.6475 158.38 17.6264C158.942 18.6052 159.223 19.7471 159.223 21.0522L154.356 19.8559Z" fill="#CFE7F7"/>
<path d="M1.72585 3.97171C1.58574 3.82147 1.59396 3.5861 1.74421 3.44599L2.25292 2.97161C2.40316 2.83151 2.63854 2.83973 2.77864 2.98997L5.08714 5.46553L4.03434 6.44727L1.72585 3.97171Z" fill="#F7F5FD"/>
<path d="M0.369194 9.75859C0.165294 9.73356 0.0202955 9.54797 0.0453314 9.34407L0.130101 8.65367C0.155137 8.44977 0.340726 8.30478 0.544627 8.32981L3.90429 8.74233L3.72886 10.1711L0.369194 9.75859Z" fill="#F7F5FD"/>
<path d="M6.74077 1.38986C6.71573 1.18596 6.86073 1.00037 7.06463 0.97533L7.75502 0.890561C7.95892 0.865525 8.14451 1.01052 8.16955 1.21442L8.58206 4.57409L7.15328 4.74952L6.74077 1.38986Z" fill="#F7F5FD"/>
</svg>
