<svg width="89" height="92" viewBox="0 0 89 92" fill="none" xmlns="http://www.w3.org/2000/svg">
<path d="M81.3806 15.6667H64.5768V11.875C64.5768 8.85816 63.5145 5.96489 61.6237 3.83166C59.7329 1.69843 57.1685 0.5 54.4945 0.5H34.3299C31.6559 0.5 29.0914 1.69843 27.2006 3.83166C25.3098 5.96489 24.2476 8.85816 24.2476 11.875V15.6667H7.44371C5.66104 15.6667 3.95139 16.4656 2.69086 17.8878C1.43033 19.3099 0.722168 21.2388 0.722168 23.25V83.9167C0.722168 85.9279 1.43033 87.8567 2.69086 89.2789C3.95139 90.701 5.66104 91.5 7.44371 91.5H81.3806C83.1633 91.5 84.8729 90.701 86.1335 89.2789C87.394 87.8567 88.1022 85.9279 88.1022 83.9167V23.25C88.1022 21.2388 87.394 19.3099 86.1335 17.8878C84.8729 16.4656 83.1633 15.6667 81.3806 15.6667ZM30.9691 11.875C30.9691 10.8694 31.3232 9.90496 31.9534 9.19389C32.5837 8.48281 33.4385 8.08333 34.3299 8.08333H54.4945C55.3858 8.08333 56.2406 8.48281 56.8709 9.19389C57.5012 9.90496 57.8552 10.8694 57.8552 11.875V15.6667H30.9691V11.875ZM81.3806 23.25V42.9714C70.0371 49.9375 57.3273 53.5859 44.4122 53.5833C31.4976 53.586 18.7881 49.9393 7.44371 42.9761V23.25H81.3806ZM81.3806 83.9167H7.44371V51.5169C18.954 57.8689 31.5987 61.1695 44.4122 61.1667C57.2259 61.167 69.8703 57.8648 81.3806 51.5121V83.9167ZM34.3299 42.2083C34.3299 41.2027 34.6839 40.2383 35.3142 39.5272C35.9445 38.8161 36.7993 38.4167 37.6906 38.4167H51.1337C52.025 38.4167 52.8799 38.8161 53.5101 39.5272C54.1404 40.2383 54.4945 41.2027 54.4945 42.2083C54.4945 43.2139 54.1404 44.1784 53.5101 44.8894C52.8799 45.6005 52.025 46 51.1337 46H37.6906C36.7993 46 35.9445 45.6005 35.3142 44.8894C34.6839 44.1784 34.3299 43.2139 34.3299 42.2083Z" fill="#4B3577"/>
</svg>
