<svg width="89" height="92" viewBox="0 0 89 92" fill="none" xmlns="http://www.w3.org/2000/svg">
<path d="M2.15441 45.7187C2.5075 45.9944 2.90929 46.195 3.33683 46.3091C3.76438 46.4231 4.20932 46.4484 4.64624 46.3834C5.08316 46.3184 5.50351 46.1645 5.88329 45.9303C6.26306 45.6962 6.59483 45.3864 6.85965 45.0188C8.89451 42.1937 11.5331 39.9008 14.5665 38.3215C17.5999 36.7423 20.9448 35.9201 24.3362 35.9201C27.7277 35.9201 31.0725 36.7423 34.1059 38.3215C37.1393 39.9008 39.778 42.1937 41.8128 45.0188C42.3483 45.7606 43.1447 46.2506 44.0271 46.381C44.9095 46.5115 45.8055 46.2716 46.5181 45.7143C46.7721 45.5176 46.9971 45.2833 47.186 45.0188C49.2209 42.1937 51.8595 39.9008 54.8929 38.3215C57.9263 36.7423 61.2712 35.9201 64.6626 35.9201C68.0541 35.9201 71.3989 36.7423 74.4323 38.3215C77.4657 39.9008 80.1043 42.1937 82.1392 45.0188C82.6746 45.7613 83.4713 46.2519 84.3541 46.3828C85.2369 46.5136 86.1334 46.2739 86.8465 45.7165C87.5596 45.159 88.0308 44.3295 88.1565 43.4103C88.2822 42.491 88.052 41.5575 87.5166 40.815C84.5417 36.6623 80.5746 33.3927 76.0098 31.3314C78.5123 28.9523 80.2656 25.8411 81.0396 22.4059C81.8136 18.9708 81.5721 15.3722 80.3468 12.0825C79.1215 8.79283 76.9696 5.96573 74.1736 3.97223C71.3776 1.97874 68.0681 0.911987 64.6794 0.911987C61.2907 0.911987 57.9812 1.97874 55.1852 3.97223C52.3892 5.96573 50.2374 8.79283 49.0121 12.0825C47.7867 15.3722 47.5452 18.9708 48.3192 22.4059C49.0932 25.8411 50.8465 28.9523 53.349 31.3314C50.053 32.8154 47.0588 34.9399 44.5267 37.5911C41.9946 34.9399 39.0004 32.8154 35.7044 31.3314C38.207 28.9523 39.9603 25.8411 40.7343 22.4059C41.5082 18.9708 41.2667 15.3722 40.0414 12.0825C38.8161 8.79283 36.6642 5.96573 33.8682 3.97223C31.0722 1.97874 27.7627 0.911987 24.374 0.911987C20.9854 0.911987 17.6759 1.97874 14.8799 3.97223C12.0839 5.96573 9.93199 8.79283 8.70668 12.0825C7.48136 15.3722 7.23985 18.9708 8.01383 22.4059C8.78781 25.8411 10.5411 28.9523 13.0437 31.3314C8.4588 33.386 4.47216 36.6577 1.48224 40.8194C1.21742 41.187 1.02474 41.6054 0.915208 42.0506C0.805672 42.4958 0.78142 42.959 0.843837 43.414C0.906255 43.8689 1.05412 44.3066 1.27899 44.7021C1.50386 45.0975 1.80133 45.4429 2.15441 45.7187ZM64.6668 7.92415C66.661 7.92415 68.6103 8.53988 70.2684 9.69347C71.9265 10.8471 73.2188 12.4867 73.982 14.405C74.7451 16.3234 74.9448 18.4343 74.5557 20.4708C74.1667 22.5073 73.2064 24.3779 71.7963 25.8462C70.3862 27.3144 68.5897 28.3143 66.6338 28.7194C64.678 29.1245 62.6507 28.9166 60.8084 28.122C58.966 27.3274 57.3913 25.9817 56.2834 24.2553C55.1755 22.5288 54.5842 20.499 54.5842 18.4226C54.5842 15.6383 55.6464 12.9679 57.5373 10.9991C59.4282 9.03024 61.9927 7.92415 64.6668 7.92415ZM24.3362 7.92415C26.3304 7.92415 28.2798 8.53988 29.9379 9.69347C31.5959 10.8471 32.8883 12.4867 33.6514 14.405C34.4145 16.3234 34.6142 18.4343 34.2251 20.4708C33.8361 22.5073 32.8758 24.3779 31.4657 25.8462C30.0557 27.3144 28.2591 28.3143 26.3033 28.7194C24.3474 29.1245 22.3201 28.9166 20.4778 28.122C18.6354 27.3274 17.0607 25.9817 15.9528 24.2553C14.8449 22.5288 14.2536 20.499 14.2536 18.4226C14.2536 15.6383 15.3159 12.9679 17.2067 10.9991C19.0976 9.03024 21.6621 7.92415 24.3362 7.92415ZM76.0098 76.8248C78.5123 74.4457 80.2656 71.3345 81.0396 67.8993C81.8136 64.4642 81.5721 60.8656 80.3468 57.5759C79.1215 54.2862 76.9696 51.4591 74.1736 49.4656C71.3776 47.4721 68.0681 46.4054 64.6794 46.4054C61.2907 46.4054 57.9812 47.4721 55.1852 49.4656C52.3892 51.4591 50.2374 54.2862 49.0121 57.5759C47.7867 60.8656 47.5452 64.4642 48.3192 67.8993C49.0932 71.3345 50.8465 74.4457 53.349 76.8248C50.053 78.3088 47.0588 80.4333 44.5267 83.0845C41.9946 80.4333 39.0004 78.3088 35.7044 76.8248C38.207 74.4457 39.9603 71.3345 40.7343 67.8993C41.5082 64.4642 41.2667 60.8656 40.0414 57.5759C38.8161 54.2862 36.6642 51.4591 33.8682 49.4656C31.0722 47.4721 27.7627 46.4054 24.374 46.4054C20.9854 46.4054 17.6759 47.4721 14.8799 49.4656C12.0839 51.4591 9.93199 54.2862 8.70668 57.5759C7.48136 60.8656 7.23985 64.4642 8.01383 67.8993C8.78781 71.3345 10.5411 74.4457 13.0437 76.8248C8.4588 78.8794 4.47216 82.1511 1.48224 86.3128C1.21742 86.6804 1.02474 87.0988 0.915208 87.544C0.805672 87.9892 0.78142 88.4525 0.843837 88.9074C0.906255 89.3623 1.05412 89.8 1.27899 90.1955C1.50386 90.5909 1.80133 90.9363 2.15441 91.2121C2.5075 91.4878 2.90929 91.6884 3.33683 91.8025C3.76438 91.9165 4.20932 91.9418 4.64624 91.8768C5.08316 91.8118 5.50351 91.6579 5.88329 91.4237C6.26306 91.1896 6.59483 90.8798 6.85965 90.5122C8.89451 87.6871 11.5331 85.3942 14.5665 83.8149C17.5999 82.2357 20.9448 81.4135 24.3362 81.4135C27.7277 81.4135 31.0725 82.2357 34.1059 83.8149C37.1393 85.3942 39.778 87.6871 41.8128 90.5122C42.3483 91.254 43.1447 91.744 44.0271 91.8744C44.9095 92.0049 45.8055 91.7651 46.5181 91.2077C46.7721 91.011 46.9971 90.7767 47.186 90.5122C49.2209 87.6871 51.8595 85.3942 54.8929 83.8149C57.9263 82.2357 61.2712 81.4135 64.6626 81.4135C68.0541 81.4135 71.3989 82.2357 74.4323 83.8149C77.4657 85.3942 80.1043 87.6871 82.1392 90.5122C82.6746 91.2547 83.4713 91.7453 84.3541 91.8762C85.2369 92.007 86.1334 91.7673 86.8465 91.2099C87.5596 90.6524 88.0308 89.8229 88.1565 88.9037C88.2822 87.9845 88.052 87.0509 87.5166 86.3084C84.5417 82.1557 80.5746 78.8861 76.0098 76.8248ZM24.3362 53.4176C26.3304 53.4176 28.2798 54.0333 29.9379 55.1869C31.5959 56.3405 32.8883 57.9801 33.6514 59.8984C34.4145 61.8168 34.6142 63.9277 34.2251 65.9642C33.8361 68.0007 32.8758 69.8714 31.4657 71.3396C30.0557 72.8078 28.2591 73.8077 26.3033 74.2128C24.3474 74.6179 22.3201 74.41 20.4778 73.6154C18.6354 72.8208 17.0607 71.4751 15.9528 69.7487C14.8449 68.0222 14.2536 65.9924 14.2536 63.916C14.2536 61.1317 15.3159 58.4613 17.2067 56.4925C19.0976 54.5236 21.6621 53.4176 24.3362 53.4176ZM64.6668 53.4176C66.661 53.4176 68.6103 54.0333 70.2684 55.1869C71.9265 56.3405 73.2188 57.9801 73.982 59.8984C74.7451 61.8168 74.9448 63.9277 74.5557 65.9642C74.1667 68.0007 73.2064 69.8714 71.7963 71.3396C70.3862 72.8078 68.5897 73.8077 66.6338 74.2128C64.678 74.6179 62.6507 74.41 60.8084 73.6154C58.966 72.8208 57.3913 71.4751 56.2834 69.7487C55.1755 68.0222 54.5842 65.9924 54.5842 63.916C54.5842 61.1317 55.6464 58.4613 57.5373 56.4925C59.4282 54.5236 61.9927 53.4176 64.6668 53.4176Z" fill="#4B3577"/>
</svg>
