<svg width="89" height="92" viewBox="0 0 89 92" fill="none" xmlns="http://www.w3.org/2000/svg">
<path d="M19.973 20.4115C20.1233 20.2358 20.2651 20.0536 20.3985 19.8641C20.5319 19.6746 20.6564 19.479 20.7721 19.277C20.8878 19.075 20.9937 18.868 21.0903 18.6553C21.1865 18.4427 21.2733 18.226 21.35 18.0051C21.4262 17.7837 21.4927 17.5596 21.5486 17.3318C21.6048 17.1039 21.65 16.8743 21.6851 16.6418C21.7201 16.4099 21.744 16.1765 21.7577 15.9418C21.771 15.707 21.7737 15.4723 21.7657 15.2376C21.7573 15.0024 21.7387 14.7685 21.709 14.5356C21.6793 14.3027 21.6394 14.0717 21.5884 13.8425C21.5375 13.6133 21.4763 13.3873 21.405 13.1646C21.3336 12.9418 21.2516 12.7227 21.1603 12.5078C21.0686 12.2934 20.9671 12.0836 20.8563 11.8788C20.7455 11.674 20.6254 11.4753 20.4964 11.2825C20.367 11.0897 20.2296 10.9039 20.0834 10.7249C19.9371 10.546 19.7829 10.3744 19.6211 10.2107L14.8042 5.19447C14.7209 5.10685 14.6442 5.01369 14.5742 4.91454C14.5041 4.81538 14.4417 4.71162 14.3863 4.60278C14.3309 4.4944 14.2834 4.38188 14.244 4.26566C14.2046 4.1499 14.1735 4.03138 14.1505 3.91101C14.1279 3.79018 14.1137 3.66843 14.1079 3.5453C14.1026 3.42263 14.1057 3.29995 14.1172 3.17728C14.1292 3.05507 14.1492 2.93424 14.178 2.81479C14.2068 2.69535 14.244 2.57867 14.2892 2.46522C14.3344 2.35177 14.3876 2.24201 14.4479 2.1364C14.5086 2.03079 14.5764 1.93025 14.6513 1.83525C14.7262 1.74025 14.8073 1.65124 14.895 1.56823C14.9823 1.48568 15.075 1.41004 15.1734 1.34133C15.2713 1.27261 15.3737 1.2122 15.4805 1.15916C15.5868 1.10613 15.6968 1.06185 15.8098 1.02588C15.9228 0.98991 16.0376 0.962239 16.1546 0.943792C16.2711 0.925345 16.3886 0.916121 16.5069 0.915199C16.8247 0.908742 17.1429 0.91197 17.4606 0.925345C17.7784 0.938719 18.0957 0.961778 18.4121 0.994983C18.7286 1.02819 19.0437 1.07154 19.3575 1.12457C19.6717 1.17761 19.9837 1.24033 20.2939 1.31273C20.6041 1.3856 20.9121 1.46769 21.2179 1.55946C21.5233 1.6517 21.826 1.75316 22.1256 1.86384C22.4252 1.97499 22.7217 2.09489 23.0142 2.22448C23.3071 2.35408 23.5956 2.49289 23.8806 2.64047C24.1651 2.78804 24.4452 2.94438 24.7209 3.10949C24.9965 3.27505 25.2673 3.44845 25.5328 3.63062C25.7987 3.81324 26.0588 4.00325 26.3132 4.20202C26.5676 4.40032 26.8162 4.60693 27.0591 4.82092C27.3015 5.03491 27.5377 5.25673 27.7678 5.48548C27.9978 5.71468 28.2207 5.95081 28.437 6.19339C28.6528 6.43643 28.862 6.68592 29.0636 6.94234C29.2653 7.19829 29.4594 7.46024 29.646 7.72865C29.8325 7.99706 30.0112 8.27099 30.1818 8.55047C30.3524 8.82994 30.5151 9.11449 30.6693 9.40411C30.8235 9.69373 30.9693 9.98796 31.1063 10.2868C31.2436 10.5856 31.3717 10.8886 31.4914 11.1953C31.611 11.5025 31.7218 11.8128 31.8238 12.1264C31.9253 12.4405 32.0179 12.7573 32.1012 13.0769C32.1845 13.3965 32.2585 13.7184 32.3232 14.0426C32.3879 14.3669 32.4433 14.6929 32.489 15.0208C32.5351 15.3487 32.5714 15.6775 32.598 16.0077C32.625 16.3375 32.6423 16.6681 32.6499 16.9993C32.6578 17.3304 32.6556 17.6615 32.6441 17.9926C32.6326 18.3238 32.6118 18.654 32.5812 18.9837C32.5506 19.3135 32.5103 19.6418 32.4611 19.9688C32.4114 20.2962 32.352 20.6214 32.2838 20.9446C32.2155 21.2684 32.1375 21.5894 32.0507 21.908C31.9638 22.2267 31.8676 22.5422 31.7622 22.8548L44.6305 36.2558L38.5752 42.5624L36.3872 40.2832C36.2676 40.1587 36.1426 40.0407 36.0119 39.9295C35.8811 39.8179 35.7455 39.7132 35.605 39.6154C35.4645 39.5177 35.3196 39.4273 35.1707 39.3447C35.0213 39.2617 34.8689 39.1866 34.7129 39.1192C34.5564 39.0519 34.3978 38.9929 34.236 38.9417C34.0743 38.8909 33.9107 38.848 33.745 38.8139C33.5792 38.7798 33.4121 38.754 33.2442 38.7369C33.0758 38.7194 32.9074 38.7111 32.7385 38.7111C32.5692 38.7111 32.4008 38.7198 32.2328 38.7369C32.0644 38.7544 31.8978 38.7803 31.732 38.8144C31.5663 38.849 31.4023 38.8914 31.2405 38.9426C31.0792 38.9938 30.9201 39.0528 30.7641 39.1206C30.6081 39.1879 30.4552 39.2631 30.3063 39.3457C30.1574 39.4287 30.0125 39.5191 29.872 39.6168C29.7315 39.7146 29.5963 39.8193 29.4656 39.9309C29.3349 40.0425 29.2099 40.1606 29.0902 40.2851L29.0521 40.3252L22.029 33.0109C21.7272 33.1211 21.4227 33.2217 21.1151 33.3125C20.808 33.4034 20.4982 33.4845 20.1858 33.556C19.8738 33.627 19.56 33.6888 19.244 33.74C18.9285 33.7917 18.6116 33.8332 18.2934 33.865C17.9752 33.8964 17.6565 33.918 17.337 33.9296C17.0174 33.9411 16.6979 33.9425 16.3784 33.9337C16.0593 33.925 15.7402 33.9065 15.422 33.8779C15.1033 33.8489 14.786 33.8101 14.47 33.7612C14.154 33.7128 13.8394 33.6543 13.5265 33.5855C13.214 33.5168 12.9034 33.4384 12.5954 33.3503C12.2869 33.2623 11.9815 33.1645 11.6793 33.057C11.3766 32.9496 11.0774 32.8329 10.7818 32.7065C10.4862 32.5806 10.1946 32.445 9.90656 32.3002C9.61893 32.1559 9.33529 32.0023 9.05653 31.84C8.77777 31.6772 8.50344 31.5061 8.23487 31.3262C7.96585 31.1468 7.70216 30.9587 7.44423 30.7622C7.18629 30.5657 6.93412 30.3614 6.68771 30.1493C6.44174 29.9372 6.20198 29.7172 5.96842 29.4898C5.73531 29.2625 5.5084 29.0282 5.28858 28.7865C5.0692 28.5449 4.85648 28.2963 4.65128 28.0413C4.44564 27.7862 4.24798 27.5252 4.05786 27.2577C3.86773 26.9898 3.68558 26.7167 3.51141 26.4377C3.33724 26.1587 3.17105 25.8746 3.01327 25.585C2.8555 25.2954 2.70615 25.0016 2.56566 24.7028C2.42517 24.4039 2.2931 24.1009 2.17034 23.7933C2.04713 23.4862 1.93323 23.1758 1.8282 22.8613C1.72317 22.5468 1.62744 22.2295 1.54102 21.909C1.45415 21.5889 1.37704 21.2661 1.30923 20.9405C1.24187 20.6154 1.18337 20.2884 1.13462 19.9596C1.08587 19.6303 1.04687 19.3001 1.01717 18.969C0.98748 18.6374 0.967537 18.3053 0.957344 17.9728C0.94715 17.6403 0.946707 17.3073 0.955571 16.9748C0.961332 16.8544 0.975514 16.735 0.997673 16.6165C1.01983 16.498 1.05041 16.3822 1.08853 16.2683C1.12708 16.1544 1.17317 16.0442 1.22724 15.9372C1.28087 15.8306 1.34158 15.7282 1.40983 15.6305C1.47764 15.5332 1.5521 15.4409 1.63276 15.3547C1.71342 15.268 1.79984 15.1882 1.89202 15.1144C1.98376 15.0411 2.08037 14.9751 2.18142 14.9161C2.28246 14.8571 2.38705 14.8064 2.49519 14.763C2.60333 14.7201 2.71412 14.6851 2.82714 14.6588C2.94015 14.6325 3.05405 14.6145 3.16972 14.6053C3.28539 14.5961 3.40062 14.5956 3.51629 14.6039C3.63196 14.6117 3.7463 14.6288 3.85931 14.6542C3.97277 14.6795 4.08356 14.7132 4.19214 14.7556C4.30072 14.7976 4.40576 14.8474 4.50725 14.9055C4.60874 14.9636 4.70579 15.0286 4.79842 15.1015C4.89104 15.1739 4.97791 15.2532 5.05945 15.339L10.0825 20.5697C10.1636 20.6546 10.2469 20.7371 10.332 20.8174C10.4175 20.8976 10.5044 20.9755 10.5935 21.0512C10.6826 21.1273 10.7734 21.2006 10.8656 21.2716C10.9582 21.3426 11.0526 21.4114 11.1484 21.4773C11.2441 21.5432 11.3416 21.6069 11.4404 21.6682C11.5392 21.7291 11.6394 21.7877 11.7413 21.8435C11.8428 21.8993 11.9461 21.9523 12.0502 22.003C12.1544 22.0533 12.2599 22.1008 12.3662 22.146C12.473 22.1907 12.5803 22.2332 12.6889 22.2724C12.7974 22.312 12.9069 22.3485 13.0173 22.3821C13.1276 22.4158 13.2389 22.4462 13.3505 22.4744C13.4622 22.502 13.5748 22.5269 13.6878 22.5491C13.8008 22.5712 13.9143 22.5901 14.0282 22.6063C14.1421 22.6224 14.2564 22.6353 14.3707 22.6455C14.4855 22.6556 14.6003 22.6625 14.7151 22.6667C14.8299 22.6708 14.9447 22.6722 15.0599 22.6704C15.1747 22.6685 15.2895 22.6635 15.4043 22.6561C15.519 22.6482 15.6334 22.6372 15.7477 22.6233C15.8616 22.6095 15.9755 22.5929 16.089 22.5731C16.2024 22.5532 16.3154 22.5306 16.4276 22.5053C16.5397 22.4794 16.6514 22.4508 16.7622 22.4195C16.8734 22.3881 16.9833 22.354 17.0928 22.3166C17.2018 22.2793 17.3104 22.2396 17.4176 22.1967C17.5249 22.1538 17.6313 22.1082 17.7363 22.0598C17.8418 22.0118 17.9455 21.9606 18.0483 21.9067C18.1511 21.8532 18.2522 21.7964 18.3523 21.7374C18.4525 21.6784 18.5509 21.617 18.6479 21.5525C18.745 21.4884 18.8403 21.422 18.9342 21.3528C19.0282 21.2836 19.1199 21.2117 19.2103 21.1379C19.3007 21.0641 19.3894 20.9875 19.4762 20.9091C19.5626 20.8303 19.6477 20.7496 19.7306 20.6665C19.8135 20.5835 19.8941 20.4987 19.973 20.4115ZM87.8271 80.8171C87.7664 81.0537 87.7004 81.2885 87.6286 81.5218C87.5568 81.7552 87.4797 81.9862 87.3973 82.2154C87.3144 82.4446 87.2266 82.6715 87.1331 82.8961C87.0401 83.1207 86.9417 83.343 86.8375 83.5625C86.7338 83.7825 86.6252 83.9993 86.5109 84.2132C86.397 84.4272 86.2782 84.6385 86.1541 84.8464C86.03 85.0544 85.9011 85.2592 85.7677 85.4607C85.6338 85.6618 85.4956 85.8601 85.3529 86.0543C85.2097 86.2484 85.0626 86.4394 84.9106 86.6261C84.7585 86.8129 84.6021 86.9955 84.4417 87.1745C84.2812 87.353 84.1164 87.5277 83.9475 87.6979C83.7787 87.8685 83.6058 88.0346 83.4294 88.196C83.2526 88.3574 83.0722 88.5142 82.8883 88.6668C82.7044 88.819 82.5169 88.9666 82.3259 89.1091C82.1349 89.2521 81.9403 89.3895 81.7431 89.5223C81.5455 89.6552 81.3451 89.7829 81.1417 89.9056C80.9379 90.0278 80.7318 90.1454 80.5226 90.257C80.3134 90.3691 80.102 90.4756 79.888 90.5766C79.6739 90.678 79.4576 90.7735 79.2391 90.8634C79.0202 90.9538 78.7999 91.0382 78.577 91.1166C78.3545 91.1955 78.1303 91.2688 77.9043 91.3362C77.6782 91.4035 77.4509 91.4648 77.2218 91.5206C76.9931 91.576 76.7631 91.6258 76.5317 91.6696C76.3004 91.7139 76.0682 91.7517 75.835 91.7835C75.6019 91.8158 75.3684 91.8416 75.1344 91.8619C74.8999 91.8817 74.6655 91.896 74.4301 91.9039C74.1953 91.9122 73.9604 91.914 73.7255 91.9099C73.4902 91.9062 73.2557 91.896 73.0208 91.8803C72.7864 91.8642 72.5524 91.8421 72.3188 91.8144C72.0853 91.7863 71.8526 91.7526 71.6204 91.7125C71.3886 91.6728 71.1577 91.6267 70.9281 91.575C70.6981 91.5234 70.4699 91.4662 70.2425 91.4026C70.0156 91.3394 69.79 91.2702 69.5662 91.1955C69.3424 91.1203 69.1208 91.0396 68.9005 90.9534C68.6807 90.8671 68.4627 90.7754 68.2473 90.678C68.0315 90.5807 67.8183 90.4779 67.6073 90.3695C67.3968 90.2611 67.1885 90.1477 66.9829 90.0287C66.7777 89.9097 66.5751 89.7857 66.3753 89.6561C66.1758 89.5269 65.9795 89.3927 65.7863 89.253C65.5931 89.1137 65.4029 88.9698 65.2163 88.8204C65.0302 88.6715 64.8472 88.5179 64.6681 88.3592C64.4886 88.2011 64.3136 88.0378 64.1421 87.8704C63.9706 87.703 63.803 87.5314 63.6395 87.3553C63.476 87.1796 63.3169 86.9992 63.1622 86.8152C63.0071 86.6312 62.8564 86.443 62.7106 86.2512C62.5643 86.0593 62.423 85.8643 62.286 85.665C62.1495 85.4658 62.0174 85.2634 61.8898 85.0577C61.7626 84.852 61.6403 84.6431 61.5229 84.4309C61.4054 84.2188 61.2933 84.0039 61.1856 83.7862C61.0783 83.5681 60.9764 83.3476 60.8794 83.1249C60.7827 82.9017 60.691 82.6761 60.605 82.4488C60.5186 82.221 60.4375 81.9908 60.3622 81.7593C60.2868 81.5273 60.2168 81.2935 60.1525 81.0583C60.0883 80.8227 60.0293 80.5856 59.9761 80.3472C59.923 80.1088 59.8755 79.8694 59.8334 79.6282C59.7913 79.3875 59.7554 79.1458 59.7249 78.9028C59.6943 78.6602 59.6695 78.4167 59.6504 78.1727C59.6313 77.9288 59.618 77.6843 59.611 77.4399C59.6034 77.195 59.6017 76.9501 59.6056 76.7057C59.6096 76.4608 59.6194 76.2164 59.6349 75.972C59.6508 75.7276 59.6721 75.4841 59.6992 75.241C59.7262 74.9975 59.759 74.7554 59.7975 74.5137C59.8361 74.2721 59.88 74.0318 59.9301 73.7925C59.9797 73.5536 60.0355 73.3156 60.0962 73.079C60.1246 72.9697 60.1654 72.8673 60.196 72.7585L50.4712 62.631L50.5093 62.5909C50.6285 62.4664 50.742 62.3359 50.8488 62.1998C50.956 62.0638 51.0562 61.9226 51.1497 61.776C51.2436 61.6298 51.3301 61.479 51.4098 61.3236C51.4892 61.1682 51.5614 61.0095 51.6257 60.8467C51.6904 60.6844 51.7471 60.5188 51.7959 60.35C51.8451 60.1817 51.8858 60.0115 51.9186 59.8386C51.9519 59.6661 51.9762 59.4922 51.9931 59.3175C52.0095 59.1422 52.0179 58.9665 52.0179 58.7908C52.0179 58.6146 52.0095 58.4394 51.9931 58.2641C51.9762 58.0889 51.9519 57.915 51.9186 57.7425C51.8858 57.57 51.8451 57.3994 51.7959 57.2311C51.7471 57.0627 51.6904 56.8972 51.6257 56.7344C51.5614 56.5721 51.4892 56.4129 51.4098 56.2575C51.3301 56.1026 51.2436 55.9518 51.1497 55.8051C51.0562 55.6589 50.956 55.5173 50.8488 55.3813C50.742 55.2452 50.6285 55.1147 50.5093 54.9902L48.3222 52.7134L54.3778 46.4068L69.9402 62.614C70.2443 62.5208 70.5505 62.4382 70.8594 62.3663C71.1688 62.2939 71.4799 62.233 71.7928 62.1823C72.1056 62.1316 72.4199 62.0919 72.7354 62.0633C73.051 62.0343 73.3669 62.0163 73.6834 62.0093C74.0003 62.0024 74.3167 62.0061 74.6331 62.0213C74.9491 62.0361 75.2651 62.0619 75.5798 62.0984C75.8944 62.1348 76.2078 62.1823 76.5193 62.2404C76.8309 62.299 77.1407 62.3677 77.4478 62.4475C77.7554 62.5268 78.0598 62.6172 78.3612 62.7177C78.663 62.8183 78.9608 62.9294 79.2555 63.0502C79.5498 63.1715 79.8405 63.303 80.1264 63.4441C80.4127 63.5852 80.6941 63.7365 80.9706 63.897C81.2472 64.0574 81.5184 64.2276 81.7843 64.407C82.0498 64.5864 82.3095 64.7746 82.5635 64.972C82.8174 65.1693 83.0643 65.3755 83.3049 65.5895C83.5455 65.8039 83.7795 66.0267 84.006 66.2568C84.2325 66.4874 84.4514 66.7258 84.6628 66.9712C84.8738 67.217 85.0772 67.4697 85.2726 67.7293C85.4676 67.989 85.6547 68.2551 85.8328 68.5276C86.0114 68.8002 86.1807 69.0783 86.3412 69.3628C86.502 69.6469 86.6532 69.9365 86.7954 70.2312C86.9377 70.5259 87.0702 70.8252 87.1934 71.1292C87.3166 71.4331 87.4301 71.7407 87.5333 72.0524C87.637 72.3642 87.7305 72.6787 87.8139 72.9969C87.8976 73.3151 87.9707 73.6357 88.0337 73.9589C88.097 74.2822 88.1498 74.6074 88.1919 74.9343C88.2344 75.2608 88.2663 75.5888 88.2881 75.918C88.3093 76.2468 88.3204 76.5766 88.3209 76.9063C88.3217 77.2361 88.3116 77.5654 88.2912 77.8946C88.2708 78.2239 88.2398 78.5518 88.1985 78.8788C88.1573 79.2058 88.1055 79.5309 88.0439 79.8547C87.9818 80.1779 87.9096 80.4989 87.8271 80.8171ZM84.061 74.13L76.6678 66.4307L66.5685 69.2489L63.8624 79.7666L71.2556 87.4655L81.3549 84.6477L84.061 74.13ZM88.0315 3.88473C88.07 3.92485 88.105 3.96774 88.1369 4.01432C88.1684 4.06044 88.1959 4.10932 88.2194 4.16005C88.2433 4.21124 88.2628 4.26428 88.2779 4.3187C88.2929 4.37311 88.3036 4.42846 88.3098 4.48518C88.316 4.54144 88.3178 4.59771 88.3147 4.65443C88.3115 4.71116 88.3045 4.76742 88.2921 4.82276C88.2801 4.87811 88.2637 4.93206 88.2433 4.98418C88.2225 5.03675 88.1977 5.08702 88.1688 5.13544L79.7054 19.2613C79.6287 19.3895 79.5307 19.4961 79.4111 19.5809C79.2914 19.6663 79.1602 19.7225 79.018 19.7506L74.1075 20.7131L43.3798 52.7134L48.0377 57.564C48.1148 57.6443 48.1839 57.7319 48.2446 57.8269C48.3058 57.9215 48.3567 58.0215 48.3988 58.1267C48.4405 58.2323 48.4724 58.3407 48.4937 58.4523C48.515 58.5643 48.5256 58.6769 48.5256 58.7908C48.5256 58.9047 48.515 59.0177 48.4937 59.1297C48.4724 59.2414 48.4405 59.3497 48.3988 59.4549C48.3567 59.5605 48.3058 59.6606 48.2446 59.7551C48.1839 59.8497 48.1148 59.9373 48.0377 60.018L46.3505 61.7751C46.2973 61.8276 46.2401 61.8751 46.1794 61.918C46.1187 61.9609 46.0549 61.9983 45.9884 62.0301C45.9215 62.0619 45.8528 62.0878 45.7818 62.1076C45.7114 62.1279 45.6391 62.1417 45.5665 62.1496C45.4933 62.1569 45.4202 62.1583 45.3471 62.1537C45.274 62.1486 45.2013 62.1376 45.1299 62.1205C45.0586 62.103 44.989 62.0799 44.9212 62.0504C44.8534 62.0213 44.7882 61.9868 44.7262 61.9462C44.5427 61.8378 44.3517 61.7456 44.1536 61.6695C43.9555 61.5934 43.753 61.5343 43.5455 61.4928C43.3381 61.4509 43.129 61.4269 42.918 61.4209C42.707 61.4149 42.4965 61.4264 42.2873 61.4559C42.0782 61.4855 41.8725 61.5325 41.6709 61.5966C41.4688 61.6612 41.2733 61.7423 41.0841 61.8396C40.8949 61.9374 40.7145 62.0504 40.543 62.1786C40.3715 62.3068 40.211 62.4489 40.0621 62.6043C39.9128 62.7597 39.7763 62.9266 39.6531 63.1056C39.5303 63.284 39.4217 63.4717 39.3278 63.6687C39.2342 63.8661 39.1562 64.0694 39.0946 64.2797C39.0326 64.49 38.9874 64.704 38.959 64.9217C38.9307 65.1398 38.9196 65.3584 38.9254 65.5784C38.9316 65.7984 38.9546 66.0161 38.9945 66.2319C39.0344 66.4477 39.0911 66.659 39.1642 66.8651C39.2374 67.0717 39.326 67.2705 39.4301 67.4614C39.4687 67.5264 39.5024 67.5942 39.5303 67.6648C39.5582 67.7353 39.5808 67.8077 39.5972 67.882C39.6141 67.9567 39.6247 68.0319 39.6291 68.108C39.634 68.1845 39.6327 68.2606 39.6251 68.3367C39.6176 68.4124 39.6043 68.4875 39.5853 68.5613C39.5662 68.6346 39.5409 68.7066 39.5104 68.7758C39.4798 68.8454 39.4443 68.9118 39.4031 68.975C39.3619 69.0382 39.3162 69.0977 39.2657 69.153L20.8386 88.3431C20.7038 88.4838 20.566 88.6212 20.4246 88.7545C20.2837 88.8882 20.1392 89.0183 19.9916 89.1442C19.8445 89.2705 19.6943 89.3927 19.5409 89.5113C19.388 89.6298 19.232 89.7446 19.0734 89.8548C18.9147 89.9655 18.7538 90.0721 18.5903 90.174C18.4268 90.2764 18.261 90.3746 18.0926 90.4682C17.9246 90.5623 17.754 90.6518 17.5816 90.7366C17.4092 90.8219 17.235 90.9026 17.0587 90.9787C16.8827 91.0548 16.7046 91.1263 16.5251 91.1936C16.3456 91.2605 16.1643 91.3232 15.9817 91.3809C15.7991 91.4385 15.6157 91.492 15.4304 91.5405C15.2451 91.5889 15.0595 91.6322 14.872 91.6714C14.685 91.7102 14.4971 91.7443 14.3083 91.7733C14.1195 91.8029 13.9302 91.8273 13.7405 91.8467C13.5504 91.8665 13.3603 91.8813 13.1697 91.8909C12.9791 91.9006 12.7886 91.9057 12.5976 91.9057C12.407 91.9062 12.2164 91.9011 12.0259 91.8914C11.8353 91.8817 11.6447 91.8674 11.455 91.8481C11.2649 91.8287 11.0757 91.8042 10.8869 91.7752C10.6981 91.7461 10.5102 91.7125 10.3231 91.6737C10.1361 91.635 9.94999 91.5916 9.76474 91.5432C9.57949 91.4953 9.39601 91.4422 9.21342 91.3846C9.03082 91.3269 8.84956 91.2647 8.66963 91.1978C8.49014 91.1309 8.31198 91.0594 8.13604 90.9833C7.95965 90.9072 7.78503 90.827 7.61264 90.7421C7.44024 90.6573 7.26961 90.5678 7.10164 90.4742C6.93324 90.3806 6.76704 90.2828 6.60351 90.1804C6.43997 90.0785 6.27865 89.9724 6.11999 89.8618C5.96133 89.7515 5.80533 89.6372 5.65199 89.5186C5.49909 89.4006 5.34841 89.2784 5.20083 89.152C5.05369 89.0261 4.90921 88.8965 4.76784 88.7628C4.62646 88.6295 4.48819 88.4925 4.35346 88.3519C4.21829 88.2117 4.08666 88.0678 3.95858 87.9207C3.8305 87.7731 3.70597 87.6227 3.58498 87.4692C3.46399 87.3156 3.34655 87.1588 3.23309 86.9992C3.11919 86.8397 3.00928 86.6773 2.90336 86.5122C2.79744 86.3467 2.69551 86.1788 2.59757 86.0086C2.49918 85.838 2.40523 85.665 2.31526 85.4898C2.22574 85.3145 2.13976 85.1375 2.05821 84.9576C1.97667 84.7782 1.89955 84.5965 1.82643 84.4129C1.7533 84.2294 1.68505 84.044 1.62079 83.8568C1.55653 83.6695 1.4967 83.4809 1.4413 83.2909C1.3859 83.1004 1.33538 82.909 1.28885 82.7163C1.24275 82.5235 1.20109 82.3298 1.16387 82.1347C1.12664 81.9401 1.09429 81.7441 1.06637 81.5476C1.03845 81.3512 1.01496 81.1538 0.996344 80.9564C0.97773 80.7586 0.963991 80.5603 0.954684 80.3619C0.945377 80.1632 0.940503 79.9649 0.940946 79.7661C0.940946 79.5673 0.945821 79.369 0.955128 79.1703C0.964434 78.972 0.978616 78.7737 0.997673 78.5763C1.01629 78.3784 1.03978 78.181 1.06814 77.9846C1.09606 77.7881 1.12886 77.5926 1.16608 77.3975C1.20331 77.2029 1.24541 77.0087 1.29195 76.8159C1.33848 76.6236 1.38945 76.4322 1.44485 76.2418C1.50024 76.0518 1.56052 75.8632 1.62478 75.6764C1.68904 75.4891 1.75818 75.3037 1.8313 75.1202C1.90443 74.9366 1.98154 74.7554 2.06353 74.576C2.14508 74.3961 2.23105 74.219 2.32102 74.0438C2.41143 73.8686 2.50538 73.6956 2.60377 73.5254C2.70172 73.3553 2.80409 73.1874 2.91001 73.0223C3.01638 72.8572 3.12629 72.6949 3.24018 72.5353C3.35408 72.3757 3.47153 72.2194 3.59251 72.0658C3.71395 71.9122 3.83848 71.7619 3.96701 71.6152C4.09509 71.4681 4.22671 71.3242 4.36188 71.184L22.7886 51.9939C22.8422 51.9414 22.8989 51.8934 22.9597 51.851C23.0208 51.8081 23.0842 51.7707 23.1511 51.7389C23.2176 51.7071 23.2863 51.6813 23.3572 51.661C23.4281 51.6411 23.4999 51.6273 23.573 51.6195C23.6457 51.6121 23.7188 51.6107 23.7924 51.6153C23.8655 51.6204 23.9378 51.6315 24.0091 51.6485C24.0805 51.666 24.1505 51.6891 24.2179 51.7182C24.2857 51.7477 24.3508 51.7823 24.4133 51.8228C24.5968 51.9312 24.7878 52.0235 24.9859 52.0995C25.184 52.1756 25.3865 52.2347 25.5939 52.2762C25.8013 52.3181 26.0105 52.3421 26.2215 52.3481C26.4324 52.3541 26.6425 52.3426 26.8517 52.3131C27.0609 52.2836 27.2665 52.2365 27.4686 52.172C27.6703 52.1078 27.8657 52.0267 28.0549 51.9289C28.2442 51.8316 28.4246 51.7186 28.5961 51.5904C28.7676 51.4622 28.928 51.3202 29.0774 51.1647C29.2267 51.0093 29.3628 50.8424 29.486 50.6634C29.6092 50.485 29.7173 50.2973 29.8113 50.0999C29.9048 49.903 29.9828 49.6996 30.0448 49.4893C30.1064 49.279 30.1516 49.065 30.18 48.8469C30.2084 48.6292 30.2194 48.4101 30.2137 48.1906C30.2079 47.9706 30.1849 47.7529 30.1445 47.5371C30.1047 47.3213 30.0484 47.1101 29.9753 46.9039C29.9021 46.6973 29.8135 46.4985 29.7093 46.3076C29.6703 46.2426 29.6371 46.1748 29.6092 46.1042C29.5808 46.0337 29.5587 45.9613 29.5418 45.8866C29.5254 45.8123 29.5148 45.7371 29.5099 45.6606C29.5055 45.5845 29.5068 45.5084 29.5143 45.4323C29.5214 45.3562 29.5347 45.2815 29.5542 45.2077C29.5733 45.1339 29.5981 45.0624 29.6287 44.9928C29.6593 44.9236 29.6952 44.8572 29.7364 44.794C29.7771 44.7304 29.8232 44.6713 29.8733 44.6155L31.5605 42.8589C31.6381 42.7782 31.7223 42.7063 31.8131 42.6431C31.904 42.5799 32.0002 42.5264 32.1012 42.4826C32.2023 42.4388 32.3064 42.406 32.4137 42.3839C32.5209 42.3618 32.6295 42.3507 32.7389 42.3507C32.8484 42.3507 32.9566 42.3618 33.0638 42.3839C33.1711 42.406 33.2756 42.4388 33.3767 42.4826C33.4777 42.5259 33.5739 42.5794 33.6648 42.6431C33.7556 42.7063 33.8398 42.7782 33.9174 42.8585L38.5752 47.7091L69.3025 15.7093L70.227 10.5953C70.2536 10.4473 70.3076 10.3108 70.3896 10.1863C70.4712 10.0618 70.5736 9.95937 70.6968 9.87958L84.2608 1.06554C84.3074 1.03557 84.3557 1.00974 84.4058 0.988065C84.4563 0.966389 84.5081 0.949326 84.5613 0.936874C84.6145 0.924422 84.6681 0.916582 84.7226 0.913815C84.7772 0.910587 84.8312 0.912432 84.8853 0.918888C84.9394 0.925345 84.993 0.936413 85.0453 0.952093C85.0976 0.967773 85.1481 0.988065 85.1973 1.01297C85.2465 1.03741 85.293 1.066 85.3373 1.09921C85.3821 1.13195 85.4233 1.16839 85.4619 1.20851L86.7467 2.54639L88.0315 3.88473ZM6.62035 83.1318L27.7283 61.1502L24.295 57.5747L7.7939 74.7586C7.66537 74.8919 7.54261 75.0307 7.42473 75.1751C7.30728 75.319 7.19516 75.4675 7.08879 75.6206C6.98287 75.7741 6.88271 75.9314 6.78831 76.0933C6.69436 76.2547 6.60661 76.4203 6.52506 76.589C6.44396 76.7583 6.36906 76.9303 6.30081 77.1056C6.23256 77.2808 6.1714 77.4584 6.11689 77.6387C6.06238 77.819 6.01496 78.0012 5.97419 78.1856C5.93386 78.3697 5.90062 78.5555 5.87447 78.7428C5.84788 78.9295 5.82926 79.1177 5.8173 79.3063C5.80533 79.4949 5.8009 79.6836 5.804 79.8726C5.80666 80.0617 5.81641 80.2503 5.8337 80.4385C5.85098 80.6267 5.87536 80.8139 5.90726 81.0002C5.93873 81.1861 5.97773 81.3705 6.02338 81.5536C6.06903 81.7367 6.12221 81.917 6.1816 82.0955C6.24143 82.2745 6.3079 82.4502 6.38103 82.6231C6.4546 82.796 6.53437 82.9658 6.62035 83.1318ZM33.9076 67.5855L30.4734 64.0095L9.36587 85.9911C9.52542 86.081 9.68851 86.164 9.8547 86.2401C10.0209 86.3167 10.1893 86.3859 10.3608 86.4481C10.5323 86.5104 10.7061 86.5653 10.8816 86.6128C11.0571 86.6607 11.2343 86.7008 11.4134 86.734C11.592 86.7668 11.7719 86.7922 11.9523 86.8101C12.1331 86.8281 12.3144 86.8387 12.4956 86.8415C12.6773 86.8443 12.8586 86.8397 13.0399 86.8277C13.2211 86.8152 13.4015 86.7954 13.581 86.7682C13.7605 86.741 13.9391 86.7059 14.1159 86.6639C14.2927 86.622 14.4682 86.5722 14.6411 86.5154C14.8144 86.4587 14.985 86.3951 15.1534 86.3241C15.3218 86.253 15.4867 86.1751 15.6493 86.0902C15.8115 86.0054 15.9702 85.9141 16.1253 85.8158C16.2809 85.7181 16.432 85.6138 16.5791 85.5032C16.7263 85.3925 16.869 85.2758 17.0072 85.1536C17.1455 85.0309 17.2789 84.9027 17.4074 84.769L33.9076 67.5855Z" fill="#4B3577"/>
</svg>
