<svg width="103" height="77" viewBox="0 0 103 77" fill="none" xmlns="http://www.w3.org/2000/svg">
<path d="M72.0548 31.532H61.7812C60.8729 31.532 60.0019 31.1696 59.3597 30.5245C58.7174 29.8793 58.3566 29.0044 58.3566 28.092C58.3566 27.1797 58.7174 26.3047 59.3597 25.6596C60.0019 25.0145 60.8729 24.652 61.7812 24.652H72.0548C72.9631 24.652 73.8341 25.0145 74.4763 25.6596C75.1186 26.3047 75.4794 27.1797 75.4794 28.092C75.4794 29.0044 75.1186 29.8793 74.4763 30.5245C73.8341 31.1696 72.9631 31.532 72.0548 31.532ZM41.2339 24.652H37.8093V21.212C37.8093 20.2997 37.4485 19.4247 36.8063 18.7796C36.1641 18.1345 35.293 17.772 34.3848 17.772C33.4765 17.772 32.6055 18.1345 31.9633 18.7796C31.321 19.4247 30.9602 20.2997 30.9602 21.212V24.652H27.5357C26.6275 24.652 25.7564 25.0145 25.1142 25.6596C24.472 26.3047 24.1112 27.1797 24.1112 28.092C24.1112 29.0044 24.472 29.8793 25.1142 30.5245C25.7564 31.1696 26.6275 31.532 27.5357 31.532H30.9602V34.972C30.9602 35.8844 31.321 36.7593 31.9633 37.4045C32.6055 38.0496 33.4765 38.412 34.3848 38.412C35.293 38.412 36.1641 38.0496 36.8063 37.4045C37.4485 36.7593 37.8093 35.8844 37.8093 34.972V31.532H41.2339C42.1421 31.532 43.0132 31.1696 43.6554 30.5245C44.2976 29.8793 44.6584 29.0044 44.6584 28.092C44.6584 27.1797 44.2976 26.3047 43.6554 25.6596C43.0132 25.0145 42.1421 24.652 41.2339 24.652ZM100.085 69.6515C98.7941 71.5029 97.1155 73.0479 95.167 74.178C93.2184 75.3081 91.0471 75.9958 88.8057 76.193C86.5643 76.3901 84.307 76.0918 82.1926 75.319C80.0782 74.5462 78.1579 73.3177 76.5667 71.7198C76.5153 71.6682 76.4639 71.6166 76.4168 71.5607L59.4182 52.172H43.5797L26.5982 71.5607L26.4484 71.7198C23.5555 74.6195 19.6365 76.2492 15.5498 76.252C13.3 76.2512 11.0777 75.7555 9.039 74.7999C7.00027 73.8443 5.19457 72.4518 3.74874 70.7204C2.3029 68.989 1.252 66.9605 0.669862 64.7776C0.0877203 62.5946 -0.0115451 60.3101 0.379039 58.0845C0.376977 58.0645 0.376977 58.0443 0.379039 58.0243L7.38652 21.8656C8.42943 15.9018 11.5313 10.498 16.1472 6.60369C20.763 2.70938 26.5975 0.573739 32.6254 0.572021H70.3425C76.3523 0.581652 82.1689 2.70508 86.7824 6.57364C91.396 10.4422 94.5153 15.8116 95.5986 21.7495C95.5986 21.7753 95.5986 21.8011 95.5986 21.8269L102.606 58.02C102.608 58.04 102.608 58.0602 102.606 58.0802C102.969 60.0806 102.933 62.1334 102.5 64.1197C102.067 66.106 101.246 67.9862 100.085 69.6515ZM70.3425 45.292C75.3379 45.292 80.1287 43.2987 83.6609 39.7505C87.1932 36.2023 89.1776 31.3899 89.1776 26.372C89.1776 21.3541 87.1932 16.5417 83.6609 12.9936C80.1287 9.44537 75.3379 7.45202 70.3425 7.45202H32.6254C28.2033 7.45601 23.9242 9.0264 20.5409 11.8869C17.1577 14.7474 14.8871 18.7148 14.1286 23.0911V23.147L7.11684 59.3057C6.8069 61.0984 7.07095 62.9435 7.871 64.5759C8.67105 66.2083 9.96587 67.5437 11.5692 68.3901C13.1726 69.2365 15.0019 69.5502 16.794 69.2863C18.5862 69.0223 20.2488 68.1942 21.5427 66.921L39.4874 46.4573C39.8087 46.0912 40.2039 45.7979 40.6467 45.597C41.0895 45.3961 41.5699 45.2921 42.0558 45.292H70.3425ZM95.8982 59.3057L92.1569 39.9557C89.8559 43.6881 86.6448 46.769 82.8275 48.9067C79.0102 51.0444 74.713 52.1683 70.3425 52.172H68.5447L81.4723 66.9253C82.447 67.8777 83.6326 68.5843 84.9319 68.9872C86.2311 69.3901 87.6069 69.4777 88.9464 69.243C91.1779 68.8474 93.1622 67.5792 94.4645 65.7165C95.7667 63.8538 96.2808 61.5485 95.894 59.3057H95.8982Z" fill="#4B3577"/>
</svg>
