<svg width="89" height="92" viewBox="0 0 89 92" fill="none" xmlns="http://www.w3.org/2000/svg">
<path d="M20.5373 3.99945H24.5091C24.5091 2.70863 23.7029 1.52263 22.4114 0.913531C21.12 0.304476 19.5529 0.37121 18.3341 1.08723L20.5373 3.99945ZM52.3119 3.99945L54.5149 1.08723C53.2963 0.37121 51.7293 0.304476 50.4377 0.913531C49.1461 1.52263 48.34 2.70863 48.34 3.99945H52.3119ZM16.5655 10.9995C16.5655 12.9326 18.3438 14.4996 20.5373 14.4996C22.7309 14.4996 24.5091 12.9326 24.5091 10.9995H16.5655ZM48.34 10.9995C48.34 12.9326 50.1184 14.4996 52.3119 14.4996C54.5054 14.4996 56.2837 12.9326 56.2837 10.9995H48.34ZM64.2273 20.8256V36.6666H72.1709V20.8256H64.2273ZM47.0161 51.8334H25.8331V58.8335H47.0161V51.8334ZM8.62186 36.6666V20.8256H0.678223V36.6666H8.62186ZM13.9278 12.0889L22.7405 6.91168L18.3341 1.08723L9.52145 6.26449L13.9278 12.0889ZM63.3276 6.26449L54.5149 1.08723L50.1088 6.91168L58.9215 12.0889L63.3276 6.26449ZM16.5655 3.99945V10.9995H24.5091V3.99945H16.5655ZM48.34 3.99945V10.9995H56.2837V3.99945H48.34ZM25.8331 51.8334C16.3276 51.8334 8.62186 45.0429 8.62186 36.6666H0.678223C0.678223 48.9093 11.9404 58.8335 25.8331 58.8335V51.8334ZM64.2273 36.6666C64.2273 45.0429 56.5215 51.8334 47.0161 51.8334V58.8335C60.909 58.8335 72.1709 48.9093 72.1709 36.6666H64.2273ZM72.1709 20.8256C72.1709 14.9743 68.8526 9.5102 63.3276 6.26449L58.9215 12.0889C62.2361 14.0364 64.2273 17.3148 64.2273 20.8256H72.1709ZM8.62186 20.8256C8.62186 17.3148 10.613 14.0364 13.9278 12.0889L9.52145 6.26449C3.9967 9.5102 0.678223 14.9743 0.678223 20.8256H8.62186ZM32.4528 55.3335V83.3338H40.3964V55.3335H32.4528ZM41.7203 91.5006H52.3119V84.5005H41.7203V91.5006ZM61.5794 83.3338V75.6972H53.6358V83.3338H61.5794ZM62.9034 74.5305H68.1991V67.5304H62.9034V74.5305ZM61.5794 75.6972C61.5794 75.0532 62.172 74.5305 62.9034 74.5305V67.5304C57.785 67.5304 53.6358 71.1868 53.6358 75.6972H61.5794ZM52.3119 91.5006C57.4302 91.5006 61.5794 87.8442 61.5794 83.3338H53.6358C53.6358 83.9783 53.0432 84.5005 52.3119 84.5005V91.5006ZM32.4528 83.3338C32.4528 87.8442 36.602 91.5006 41.7203 91.5006V84.5005C40.989 84.5005 40.3964 83.9783 40.3964 83.3338H32.4528ZM80.1146 71.0286C80.1146 72.9616 78.3363 74.5287 76.1428 74.5287V81.5288C82.7233 81.5288 88.0582 76.8275 88.0582 71.0286H80.1146ZM76.1428 74.5287C73.9477 74.5287 72.1709 72.9625 72.1709 71.0305H64.2273C64.2273 76.8312 69.5638 81.5288 76.1428 81.5288V74.5287ZM72.1709 71.0305C72.1709 69.0961 73.9509 67.5286 76.1428 67.5286V60.5285C69.5607 60.5285 64.2273 65.233 64.2273 71.0305H72.1709ZM76.1428 67.5286C78.3363 67.5286 80.1146 69.0956 80.1146 71.0286H88.0582C88.0582 65.2293 82.7233 60.5285 76.1428 60.5285V67.5286Z" fill="#4B3577"/>
</svg>
